<svg width="48" height="48" viewBox="0 0 48 48" fill="none" xmlns="http://www.w3.org/2000/svg">
<rect width="48" height="48" rx="23" fill="#EEEEEE"/>
<path fill-rule="evenodd" clip-rule="evenodd" d="M15.1999 34.5601C15.1999 34.5601 13.4399 34.5601 13.4399 32.8001C13.4399 31.0401 15.1999 25.7601 23.9999 25.7601C32.7999 25.7601 34.5599 31.0401 34.5599 32.8001C34.5599 34.5601 32.7999 34.5601 32.7999 34.5601H15.1999ZM23.9999 24.0001C25.4003 24.0001 26.7433 23.4438 27.7335 22.4536C28.7237 21.4634 29.2799 20.1204 29.2799 18.7201C29.2799 17.3197 28.7237 15.9767 27.7335 14.9865C26.7433 13.9963 25.4003 13.4401 23.9999 13.4401C22.5996 13.4401 21.2566 13.9963 20.2664 14.9865C19.2762 15.9767 18.7199 17.3197 18.7199 18.7201C18.7199 20.1204 19.2762 21.4634 20.2664 22.4536C21.2566 23.4438 22.5996 24.0001 23.9999 24.0001Z" fill="#CCCCCC"/>
</svg>
